<svg width="22" height="57" viewBox="0 0 22 57" fill="none" xmlns="http://www.w3.org/2000/svg">
<path
    class="arrow"
    d="M21.0989 45.8918L20.0087 44.8512C19.5422 44.4012 18.781 44.4105 18.3243 44.8699L12.6868 50.5183L12.0337 1.125C12.0337 0.501561 11.5083 -1.90735e-06 10.8551 -1.90735e-06H9.28371C8.63058 -1.90735e-06 8.10514 0.501561 8.10514 1.125L8.75826 50.5183L3.12076 44.8699C2.66406 44.4152 1.9029 44.4058 1.43638 44.8512L0.346205 45.8918C-0.115402 46.3277 -0.115402 47.0402 0.346205 47.4808L9.89264 56.5933C10.3493 57.034 11.0958 57.034 11.5574 56.5933L21.0989 47.4808C21.5605 47.0449 21.5605 46.3324 21.0989 45.8918Z" 
    fill="#ffffff"
    stroke="white"
    stroke-width="1px"
/>
</svg>
