<svg width="403" height="68" viewBox="0 0 403 68" fill="none" xmlns="http://www.w3.org/2000/svg">
    <style>
        <defs>
        </defs>
    </style>
<path 
    class="featuresSvg"
    d="M38.216 0.0879974V7.192H9.128V29.752H32.744V36.856H9.128V67H0.392001V0.0879974H38.216ZM96.767 38.68C96.767 40.344 96.671 42.104 96.479 43.96H54.431C54.751 49.144 56.511 53.208 59.711 56.152C62.975 59.032 66.911 60.472 71.519 60.472C75.295 60.472 78.431 59.608 80.927 57.88C83.487 56.088 85.279 53.72 86.303 50.776H95.711C94.303 55.832 91.487 59.96 87.263 63.16C83.039 66.296 77.791 67.864 71.519 67.864C66.527 67.864 62.047 66.744 58.079 64.504C54.175 62.264 51.103 59.096 48.863 55C46.623 50.84 45.503 46.04 45.503 40.6C45.503 35.16 46.591 30.392 48.767 26.296C50.943 22.2 53.983 19.064 57.887 16.888C61.855 14.648 66.399 13.528 71.519 13.528C76.511 13.528 80.927 14.616 84.767 16.792C88.607 18.968 91.551 21.976 93.599 25.816C95.711 29.592 96.767 33.88 96.767 38.68ZM87.743 36.856C87.743 33.528 87.007 30.68 85.535 28.312C84.063 25.88 82.047 24.056 79.487 22.84C76.991 21.56 74.207 20.92 71.135 20.92C66.719 20.92 62.943 22.328 59.807 25.144C56.735 27.96 54.975 31.864 54.527 36.856H87.743ZM105.034 40.504C105.034 35.128 106.122 30.424 108.298 26.392C110.474 22.296 113.45 19.128 117.226 16.888C121.066 14.648 125.322 13.528 129.994 13.528C134.602 13.528 138.602 14.52 141.994 16.504C145.386 18.488 147.914 20.984 149.578 23.992V14.392H158.41V67H149.578V57.208C147.85 60.28 145.258 62.84 141.802 64.888C138.41 66.872 134.442 67.864 129.898 67.864C125.226 67.864 121.002 66.712 117.226 64.408C113.45 62.104 110.474 58.872 108.298 54.712C106.122 50.552 105.034 45.816 105.034 40.504ZM149.578 40.6C149.578 36.632 148.778 33.176 147.178 30.232C145.578 27.288 143.402 25.048 140.65 23.512C137.962 21.912 134.986 21.112 131.722 21.112C128.458 21.112 125.482 21.88 122.794 23.416C120.106 24.952 117.962 27.192 116.362 30.136C114.762 33.08 113.962 36.536 113.962 40.504C113.962 44.536 114.762 48.056 116.362 51.064C117.962 54.008 120.106 56.28 122.794 57.88C125.482 59.416 128.458 60.184 131.722 60.184C134.986 60.184 137.962 59.416 140.65 57.88C143.402 56.28 145.578 54.008 147.178 51.064C148.778 48.056 149.578 44.568 149.578 40.6ZM183.829 21.592V52.6C183.829 55.16 184.373 56.984 185.461 58.072C186.549 59.096 188.437 59.608 191.125 59.608H197.557V67H189.685C184.821 67 181.173 65.88 178.741 63.64C176.309 61.4 175.093 57.72 175.093 52.6V21.592H168.277V14.392H175.093V1.144H183.829V14.392H197.557V21.592H183.829ZM254.798 14.392V67H246.062V59.224C244.398 61.912 242.062 64.024 239.054 65.56C236.11 67.032 232.846 67.768 229.262 67.768C225.166 67.768 221.486 66.936 218.222 65.272C214.958 63.544 212.366 60.984 210.446 57.592C208.59 54.2 207.662 50.072 207.662 45.208V14.392H216.302V44.056C216.302 49.24 217.614 53.24 220.238 56.056C222.862 58.808 226.446 60.184 230.99 60.184C235.662 60.184 239.342 58.744 242.03 55.864C244.718 52.984 246.062 48.792 246.062 43.288V14.392H254.798ZM278.284 22.936C279.82 19.928 281.996 17.592 284.812 15.928C287.692 14.264 291.18 13.432 295.276 13.432V22.456H292.972C283.18 22.456 278.284 27.768 278.284 38.392V67H269.548V14.392H278.284V22.936ZM353.361 38.68C353.361 40.344 353.265 42.104 353.073 43.96H311.025C311.345 49.144 313.105 53.208 316.305 56.152C319.569 59.032 323.505 60.472 328.113 60.472C331.889 60.472 335.025 59.608 337.521 57.88C340.081 56.088 341.873 53.72 342.897 50.776H352.305C350.897 55.832 348.081 59.96 343.857 63.16C339.633 66.296 334.385 67.864 328.113 67.864C323.121 67.864 318.641 66.744 314.673 64.504C310.769 62.264 307.697 59.096 305.457 55C303.217 50.84 302.097 46.04 302.097 40.6C302.097 35.16 303.185 30.392 305.361 26.296C307.537 22.2 310.577 19.064 314.481 16.888C318.449 14.648 322.993 13.528 328.113 13.528C333.105 13.528 337.521 14.616 341.361 16.792C345.201 18.968 348.145 21.976 350.193 25.816C352.305 29.592 353.361 33.88 353.361 38.68ZM344.337 36.856C344.337 33.528 343.601 30.68 342.129 28.312C340.657 25.88 338.641 24.056 336.081 22.84C333.585 21.56 330.801 20.92 327.729 20.92C323.313 20.92 319.537 22.328 316.401 25.144C313.329 27.96 311.569 31.864 311.121 36.856H344.337ZM383.516 67.864C379.484 67.864 375.868 67.192 372.668 65.848C369.468 64.44 366.94 62.52 365.084 60.088C363.228 57.592 362.204 54.744 362.012 51.544H371.036C371.292 54.168 372.508 56.312 374.684 57.976C376.924 59.64 379.836 60.472 383.42 60.472C386.748 60.472 389.372 59.736 391.292 58.264C393.212 56.792 394.172 54.936 394.172 52.696C394.172 50.392 393.148 48.696 391.1 47.608C389.052 46.456 385.884 45.336 381.596 44.248C377.692 43.224 374.492 42.2 371.996 41.176C369.564 40.088 367.452 38.52 365.66 36.472C363.932 34.36 363.068 31.608 363.068 28.216C363.068 25.528 363.868 23.064 365.468 20.824C367.068 18.584 369.34 16.824 372.284 15.544C375.228 14.2 378.588 13.528 382.364 13.528C388.188 13.528 392.892 15 396.476 17.944C400.06 20.888 401.98 24.92 402.236 30.04H393.5C393.308 27.288 392.188 25.08 390.14 23.416C388.156 21.752 385.468 20.92 382.076 20.92C378.94 20.92 376.444 21.592 374.588 22.936C372.732 24.28 371.804 26.04 371.804 28.216C371.804 29.944 372.348 31.384 373.436 32.536C374.588 33.624 375.996 34.52 377.66 35.224C379.388 35.864 381.756 36.6 384.764 37.432C388.54 38.456 391.612 39.48 393.98 40.504C396.348 41.464 398.364 42.936 400.028 44.92C401.756 46.904 402.652 49.496 402.716 52.696C402.716 55.576 401.916 58.168 400.316 60.472C398.716 62.776 396.444 64.6 393.5 65.944C390.62 67.224 387.292 67.864 383.516 67.864Z" 
/>
</svg>
